#!OML:ASF X:\für Bonn\!DataBase\2005_08_11_Bastian_Final\c3d\Bastian.ASF
:FULLY-SPECIFIED
:DEGREES
138
root 0.41035 17.509 0.470639 176.715 -10.6614 -173.27
lowerback 11.0198 -3.64846 -0.565755
upperback 2.07088 -5.0374 1.63636
thorax -3.79828 -2.56702 2.72775
lowerneck -12.6248 -5.31469 -1.17884
upperneck 0.927809 -6.96757 8.66154
head 2.94127 -2.9599 2.6294
rclavicle 7.45939e-014 -1.82882e-014
rhumerus 76.8947 18.2948 10.9239
rradius 38.7101
rwrist -62.5385
rhand -45.6128 -5.46206
rfingers 7.12502
rthumb -18.3732 -34.6144
lclavicle 7.45939e-014 -1.82882e-014
lhumerus 79.0677 -22.4777 -37.6446
lradius 30.366
lwrist 23.2532
lhand -41.2224 17.5172
lfingers 7.12502
lthumb -14.1459 47.0156
rfemur -8.24432 3.93805 27.0307
rtibia 38.195
rfoot -28.7139 -20.9955
rtoes -10.739
lfemur -3.42825 0.613644 -13.6598
ltibia 30.0385
lfoot -20.1522 -2.24564
ltoes -12.0989
139
root 0.405194 17.4801 0.456601 176.655 -10.5279 -173.313
lowerback 10.8728 -3.60689 -0.727261
upperback 2.06395 -4.99781 1.63455
thorax -3.71289 -2.54568 2.79872
lowerneck -12.4964 -5.27912 -1.21852
upperneck 0.926434 -6.9176 8.79155
head 2.92314 -2.93282 2.68713
rclavicle 6.75868e-015 -1.27222e-014
rhumerus 76.9182 18.0917 11.4157
rradius 38.8734
rwrist -62.8349
rhand -45.7923 -5.73981
rfingers 7.12502
rthumb -18.5459 -34.8757
lclavicle 6.75868e-015 -1.27222e-014
lhumerus 79.0288 -22.3522 -37.9956
lradius 30.4397
lwrist 23.2451
lhand -41.0938 17.4871
lfingers 7.12502
lthumb -14.022 46.9941
rfemur -7.66238 4.18578 27.1108
rtibia 37.8689
rfoot -28.3662 -20.9393
rtoes -8.88774
lfemur -3.347 1.22514 -13.5632
ltibia 30.403
lfoot -20.1762 -2.96635
ltoes -11.3426
140
root 0.399873 17.4531 0.443667 176.587 -10.3519 -173.358
lowerback 10.7676 -3.54932 -0.901233
upperback 2.04859 -4.9377 1.6447
thorax -3.65848 -2.51368 2.89035
lowerneck -12.3283 -5.24558 -1.25118
upperneck 0.889772 -6.86729 8.87199
head 2.88221 -2.91049 2.72701
rclavicle 5.81942e-014 -7.15625e-015
rhumerus 76.8908 17.8617 11.8057
rradius 39.062
rwrist -63.104
rhand -45.9277 -6.03406
rfingers 7.12502
rthumb -18.6762 -35.1575
lclavicle 5.81942e-014 -7.15625e-015
lhumerus 78.8312 -22.2457 -37.8319
lradius 30.4314
lwrist 23.001
lhand -40.9884 17.2761
lfingers 7.12502
lthumb -13.9204 46.7902
rfemur -7.11202 4.14977 27.1368
rtibia 37.5793
rfoot -27.8619 -20.6615
rtoes -7.83545
lfemur -3.33952 1.96037 -13.4654
ltibia 30.849
lfoot -20.256 -3.83834
ltoes -10.9982
141
root 0.394705 17.4262 0.4314 176.463 -10.1581 -173.464
lowerback 10.7397 -3.48523 -1.15545
upperback 2.06215 -4.88113 1.65574
thorax -3.60997 -2.48416 3.0329
lowerneck -12.2087 -5.20755 -1.32809
upperneck 0.865254 -6.80681 8.98006
head 2.85767 -2.8805 2.78458
rclavicle 2.46493e-014 -7.95139e-016
rhumerus 76.8372 17.6379 11.7305
rradius 39.1178
rwrist -63.1087
rhand -45.9701 -6.16782
rfingers 7.12502
rthumb -18.7169 -35.2874
lclavicle 2.46493e-014 -7.95139e-016
lhumerus 78.4035 -22.1798 -36.966
lradius 30.3251
lwrist 22.2927
lhand -40.7585 17.0164
lfingers 7.12502
lthumb -13.6988 46.5455
rfemur -6.54359 3.90666 27.0575
rtibia 37.3721
rfoot -27.1623 -20.1708
rtoes -6.9319
lfemur -3.29423 2.7174 -13.4285
ltibia 31.2976
lfoot -20.2598 -4.70139
ltoes -10.5204
142
root 0.389822 17.3963 0.419607 176.297 -9.91877 -173.571
lowerback 10.7293 -3.40021 -1.35414
upperback 2.09991 -4.79337 1.62577
thorax -3.55636 -2.44075 3.09844
lowerneck -12.0829 -5.18335 -1.34901
upperneck 0.814755 -6.76771 9.06589
head 2.82021 -2.86163 2.82268
rclavicle -4.05521e-014 1.59028e-015
rhumerus 76.6767 17.4787 11.1637
rradius 39.0659
rwrist -62.9207
rhand -45.9089 -6.21263
rfingers 7.12502
rthumb -18.6581 -35.3378
lclavicle -4.05521e-014 1.59028e-015
lhumerus 77.9041 -22.1174 -35.6468
lradius 30.178
lwrist 21.3939
lhand -40.5833 16.701
lfingers 7.12502
lthumb -13.53 46.2415
rfemur -6.01026 3.49904 26.9327
rtibia 37.2759
rfoot -26.5415 -19.5257
rtoes -7.55885
lfemur -3.18673 3.41668 -13.4109
ltibia 31.7015
lfoot -20.2597 -5.33005
ltoes -10.185
143
root 0.385125 17.3694 0.408671 176.098 -9.68508 -173.694
lowerback 10.7561 -3.32814 -1.5926
upperback 2.15918 -4.72962 1.62301
thorax -3.49428 -2.41068 3.21947
lowerneck -11.973 -5.14196 -1.46552
upperneck 0.751872 -6.69353 9.19848
head 2.78661 -2.82436 2.89687
rclavicle -2.01766e-014 1.27222e-014
rhumerus 76.5697 17.3308 10.5322
rradius 39.037
rwrist -62.8867
rhand -45.8709 -6.01783
rfingers 7.12502
rthumb -18.6215 -35.1465
lclavicle -2.01766e-014 1.27222e-014
lhumerus 77.2184 -22.1247 -33.7721
lradius 30.0061
lwrist 20.2892
lhand -40.4253 16.3693
lfingers 7.12502
lthumb -13.3777 45.9198
rfemur -5.53551 3.00318 26.7654
rtibia 37.3231
rfoot -26.0319 -18.8177
rtoes -8.74086
lfemur -2.991 3.94988 -13.4358
ltibia 32.0252
lfoot -20.327 -5.67911
ltoes -10.4212
144
root 0.380653 17.3468 0.396706 175.909 -9.41998 -173.843
lowerback 10.7648 -3.22858 -1.81831
upperback 2.22665 -4.62867 1.57798
thorax -3.42123 -2.36257 3.28323
lowerneck -11.8329 -5.12889 -1.51022
upperneck 0.659658 -6.66185 9.30981
head 2.7351 -2.80924 2.94779
rclavicle -3.53837e-014 3.33958e-014
rhumerus 76.4303 17.2201 10.1432
rradius 39.1584
rwrist -63.3459
rhand -45.9529 -5.67263
rfingers 7.12502
rthumb -18.7004 -34.7938
lclavicle -3.53837e-014 3.33958e-014
lhumerus 76.6052 -22.1398 -31.8323
lradius 29.896
lwrist 19.4232
lhand -40.4594 16.0964
lfingers 7.12502
lthumb -13.4106 45.6448
rfemur -5.14293 2.49522 26.5488
rtibia 37.5158
rfoot -25.6354 -18.0504
rtoes -10.0474
lfemur -2.74976 4.34168 -13.5239
ltibia 32.2703
lfoot -20.3922 -5.83957
ltoes -10.639
145
root 0.376139 17.3271 0.385275 175.727 -9.14734 -174.103
lowerback 10.7849 -3.14141 -2.09043
upperback 2.304 -4.55095 1.50767
thorax -3.34169 -2.32636 3.35013
lowerneck -11.713 -5.1164 -1.7549
upperneck 0.579451 -6.61149 9.51261
head 2.70483 -2.78302 3.06882
rclavicle 3.91606e-014 -5.56597e-015
rhumerus 76.3923 17.1499 9.9992
rradius 39.4002
rwrist -64.1791
rhand -46.1383 -5.1461
rfingers 7.12502
rthumb -18.8787 -34.25
lclavicle 3.91606e-014 -5.56597e-015
lhumerus 75.8759 -22.2377 -29.5782
lradius 29.8099
lwrist 18.4991
lhand -40.5558 15.8962
lfingers 7.12502
lthumb -13.5035 45.4384
rfemur -4.80356 1.96807 26.1989
rtibia 37.8641
rfoot -25.3852 -17.211
rtoes -11.1238
lfemur -2.44809 4.69564 -13.7491
ltibia 32.4228
lfoot -20.4533 -5.87254
ltoes -11.2999
146
root 0.372451 17.3087 0.37437 175.598 -8.87794 -174.411
lowerback 10.7544 -3.04703 -2.37512
upperback 2.38018 -4.46363 1.41852
thorax -3.23726 -2.2857 3.39989
lowerneck -11.5915 -5.12179 -2.04723
upperneck 0.466565 -6.57659 9.73127
head 2.66707 -2.76495 3.20368
rclavicle 2.03257e-014 1.74931e-014
rhumerus 76.3769 17.1059 10.0221
rradius 39.6986
rwrist -65.281
rhand -46.3078 -4.5442
rfingers 7.12502
rthumb -19.0417 -33.6321
lclavicle 2.03257e-014 1.74931e-014
lhumerus 75.2594 -22.3662 -27.6303
lradius 29.8659
lwrist 18.0437
lhand -40.7954 15.7764
lfingers 7.12502
lthumb -13.7344 45.3031
rfemur -4.58541 1.52021 25.7997
rtibia 38.3355
rfoot -25.2188 -16.4399
rtoes -11.8742
lfemur -2.17386 4.92403 -14.0578
ltibia 32.508
lfoot -20.4628 -5.80796
ltoes -11.7571
147
root 0.369077 17.2933 0.365093 175.498 -8.60912 -174.717
lowerback 10.7097 -2.95516 -2.64449
upperback 2.45265 -4.37707 1.32845
thorax -3.13056 -2.2458 3.43972
lowerneck -11.4217 -5.13226 -2.34605
upperneck 0.316195 -6.54492 9.95882
head 2.6085 -2.75045 3.3438
rclavicle -3.72721e-014 1.90833e-014
rhumerus 76.3666 17.0665 10.194
rradius 40.0635
rwrist -66.4815
rhand -46.4733 -3.98917
rfingers 7.12502
rthumb -19.2009 -33.0613
lclavicle -3.72721e-014 1.90833e-014
lhumerus 74.6768 -22.5122 -25.8451
lradius 29.9895
lwrist 17.8092
lhand -41.1138 15.6692
lfingers 7.12502
lthumb -14.0413 45.1749
rfemur -4.46549 1.20597 25.4199
rtibia 38.882
rfoot -25.1153 -15.7796
rtoes -12.0086
lfemur -1.93167 5.09487 -14.3801
ltibia 32.5529
lfoot -20.4458 -5.66095
ltoes -12.1621
148
root 0.366433 17.2806 0.356684 175.389 -8.36408 -174.979
lowerback 10.6652 -2.87126 -2.84907
upperback 2.54512 -4.29565 1.23253
thorax -3.00851 -2.21068 3.43743
lowerneck -11.3111 -5.15183 -2.6029
upperneck 0.193324 -6.53215 10.1688
head 2.56867 -2.74282 3.46846
rclavicle 2.7482e-014 -1.90833e-014
rhumerus 76.3555 17.031 10.4379
rradius 40.4159
rwrist -67.6536
rhand -46.6047 -3.47018
rfingers 7.12502
rthumb -19.3272 -32.5297
lclavicle 2.7482e-014 -1.90833e-014
lhumerus 74.1232 -22.6422 -24.1932
lradius 30.1409
lwrist 17.629
lhand -41.431 15.5684
lfingers 7.12502
lthumb -14.3469 45.0526
rfemur -4.39511 1.02229 25.1199
rtibia 39.4431
rfoot -24.9581 -15.3357
rtoes -11.9294
lfemur -1.70654 5.27723 -14.6458
ltibia 32.5937
lfoot -20.3756 -5.50256
ltoes -12.5871
